<svg xmlns="http://www.w3.org/2000/svg" width="1120" height="560" viewBox="0 0 1120 560">
<style>text{font-family:Arial,Helvetica,sans-serif}.small{font-size:12px;fill:#444}.axis{font-size:12px;fill:#333}.label{font-size:12px;fill:#111}.title{font-size:20px;font-weight:700;fill:#111}.quad{font-size:12px;fill:#777}</style>
<rect width="100%" height="100%" fill="#ffffff"/>
<text x="18" y="30" class="title">Creator signal vs solver strength</text>
<text x="18" y="54" class="small">Right = higher Round 3 solver score. Up = more solvers in the useful 1-14/30 band on that model&apos;s best row.</text>
<text x="18" y="72" class="small">Zero-heavy rows do not count as creator signal; they need a solvability or scorer audit first.</text>
<line x1="548.8666666666666" x2="548.8666666666666" y1="420" y2="98" stroke="#dddddd"/>
<line x1="92" x2="715" y1="259.0" y2="259.0" stroke="#dddddd"/>
<text x="102" y="120" class="quad">creator signal</text>
<text x="558.8666666666666" y="120" class="quad">strong on both</text>
<text x="102" y="408" class="quad">low on both</text>
<line x1="92.0" x2="92.0" y1="420" y2="98" stroke="#f0f0f0"/>
<text x="92.0" y="444" class="axis" text-anchor="middle">0</text>
<line x1="299.66666666666663" x2="299.66666666666663" y1="420" y2="98" stroke="#f0f0f0"/>
<text x="299.66666666666663" y="444" class="axis" text-anchor="middle">10</text>
<line x1="507.3333333333333" x2="507.3333333333333" y1="420" y2="98" stroke="#f0f0f0"/>
<text x="507.3333333333333" y="444" class="axis" text-anchor="middle">20</text>
<line x1="715.0" x2="715.0" y1="420" y2="98" stroke="#f0f0f0"/>
<text x="715.0" y="444" class="axis" text-anchor="middle">30</text>
<line x1="92" x2="715" y1="420.0" y2="420.0" stroke="#f0f0f0"/>
<text x="76" y="424.0" class="axis" text-anchor="end">0</text>
<line x1="92" x2="715" y1="259.0" y2="259.0" stroke="#f0f0f0"/>
<text x="76" y="263.0" class="axis" text-anchor="end">3</text>
<line x1="92" x2="715" y1="98.0" y2="98.0" stroke="#f0f0f0"/>
<text x="76" y="102.0" class="axis" text-anchor="end">6</text>
<line x1="92" x2="715" y1="420" y2="420" stroke="#333"/>
<line x1="92" x2="92" y1="420" y2="98" stroke="#333"/>
<text x="403.5" y="494" class="axis" text-anchor="middle">solver strength: Round 3 average exact-match score / 30</text>
<text x="24" y="259.0" class="axis" transform="rotate(-90 24 259.0)" text-anchor="middle">creator signal: best row cells in 1-14/30 band / 6</text>
<circle cx="427.7277777777778" cy="98.0" r="6" fill="#2f80b7" stroke="#111" stroke-width="0.8"/>
<text x="439.7277777777778" y="90.0" class="label">GPT-5.2</text>
<circle cx="600.7833333333333" cy="366.3333333333333" r="6" fill="#d8902f" stroke="#111" stroke-width="0.8"/>
<text x="612.7833333333333" y="352.3333333333333" class="label">GPT-5.4</text>
<circle cx="552.3277777777778" cy="420.0" r="6" fill="#9a9a9a" stroke="#111" stroke-width="0.8"/>
<text x="474.3277777777778" y="406.0" class="label">GPT-5.5</text>
<circle cx="531.5611111111111" cy="366.3333333333333" r="6" fill="#d8902f" stroke="#111" stroke-width="0.8"/>
<text x="495.56111111111113" y="350.3333333333333" class="label">Gemini 3.1</text>
<circle cx="555.7888888888888" cy="366.3333333333333" r="6" fill="#d8902f" stroke="#111" stroke-width="0.8"/>
<text x="567.7888888888888" y="390.3333333333333" class="label">Gemini 3.5</text>
<circle cx="580.0166666666667" cy="420.0" r="6" fill="#9a9a9a" stroke="#111" stroke-width="0.8"/>
<text x="592.0166666666667" y="406.0" class="label">Opus</text>
<text x="760" y="122" class="axis" font-weight="700">Values</text>
<text x="760" y="139" class="axis">model | solver avg | creator signal | best row</text>
<text x="760" y="156" class="small">GPT-5.2 | 16.2/30 | 6/6 | reimbursement</text>
<text x="760" y="173" class="small">GPT-5.4 | 24.5/30 | 1/6 | patchwork ordinance</text>
<text x="760" y="190" class="small">GPT-5.5 | 22.2/30 | 0/6 | prior auth</text>
<text x="760" y="207" class="small">Gemini 3.1 Pro | 21.2/30 | 1/6 | lease CAM</text>
<text x="760" y="224" class="small">Gemini 3.5 Flash | 22.3/30 | 1/6 | maritime freight</text>
<text x="760" y="241" class="small">Claude Opus | 23.5/30 | 0/6 | construction payment</text>
<text x="760" y="258" class="small"></text>
<text x="760" y="275" class="small">Zeros are not wins here.</text>
<text x="760" y="292" class="small">Cross-Document was a scorer-contract failure.</text>
<text x="760" y="309" class="small">Service Credit is still a review case.</text>
<text x="760" y="326" class="small">String Rewriting had a scorer type artifact.</text>
</svg>
